<svg width="24" height="25" viewBox="0 0 24 25" fill="none" xmlns="http://www.w3.org/2000/svg">
<mask id="mask0_4001_24912" style="mask-type:alpha" maskUnits="userSpaceOnUse" x="0" y="0" width="24" height="25">
<rect y="0.499939" width="24" height="24" fill="#D9D9D9"/>
</mask>
<g mask="url(#mask0_4001_24912)">
<path d="M12 16.4999C13.25 16.4999 14.3125 16.0624 15.1875 15.1874C16.0625 14.3124 16.5 13.2499 16.5 11.9999C16.5 10.7499 16.0625 9.68745 15.1875 8.81245C14.3125 7.93745 13.25 7.49995 12 7.49995C10.75 7.49995 9.68749 7.93745 8.81249 8.81245C7.93749 9.68745 7.49999 10.7499 7.49999 11.9999C7.49999 13.2499 7.93749 14.3124 8.81249 15.1874C9.68749 16.0624 10.75 16.4999 12 16.4999ZM12.001 14.5744C11.2862 14.5744 10.6782 14.3243 10.1772 13.8239C9.67607 13.3234 9.42549 12.7158 9.42549 12.0009C9.42549 11.2861 9.67566 10.6782 10.176 10.1772C10.6765 9.67603 11.2842 9.42545 11.999 9.42545C12.7138 9.42545 13.3217 9.67561 13.8227 10.1759C14.3239 10.6764 14.5745 11.2841 14.5745 11.9989C14.5745 12.7138 14.3243 13.3217 13.824 13.8227C13.3235 14.3239 12.7158 14.5744 12.001 14.5744ZM12 19.6852C9.74282 19.6852 7.68141 19.0812 5.81574 17.8732C3.95024 16.6654 2.48015 15.0661 1.40549 13.0754C1.31015 12.9056 1.23965 12.7305 1.19399 12.5502C1.14832 12.37 1.12549 12.1866 1.12549 11.9999C1.12549 11.8133 1.14832 11.6299 1.19399 11.4497C1.23965 11.2694 1.31015 11.0943 1.40549 10.9244C2.48015 8.93378 3.95024 7.33453 5.81574 6.1267C7.68141 4.9187 9.74282 4.3147 12 4.3147C14.2572 4.3147 16.3186 4.9187 18.1842 6.1267C20.0497 7.33453 21.5198 8.93378 22.5945 10.9244C22.6898 11.0943 22.7603 11.2694 22.806 11.4497C22.8517 11.6299 22.8745 11.8133 22.8745 11.9999C22.8745 12.1866 22.8517 12.37 22.806 12.5502C22.7603 12.7305 22.6898 12.9056 22.5945 13.0754C21.5198 15.0661 20.0497 16.6654 18.1842 17.8732C16.3186 19.0812 14.2572 19.6852 12 19.6852ZM12.0005 17.4999C13.8795 17.4999 15.6045 17.0031 17.1755 16.0094C18.7465 15.0158 19.9487 13.6793 20.782 11.9999C19.9487 10.3206 18.7463 8.98411 17.175 7.99045C15.6037 6.99678 13.8785 6.49995 11.9995 6.49995C10.1205 6.49995 8.39549 6.99678 6.82449 7.99045C5.25349 8.98411 4.05132 10.3206 3.21799 11.9999C4.05132 13.6793 5.25365 15.0158 6.82499 16.0094C8.39632 17.0031 10.1215 17.4999 12.0005 17.4999Z" fill="#42424B"/>
</g>
</svg>
