<svg width="24" height="24" viewBox="0 0 24 24" fill="none" xmlns="http://www.w3.org/2000/svg">
<mask id="mask0_4324_1225" style="mask-type:alpha" maskUnits="userSpaceOnUse" x="0" y="0" width="24" height="24">
<rect width="24" height="24" fill="#D9D9D9"/>
</mask>
<g mask="url(#mask0_4324_1225)">
<path d="M17 17.2L16.1 16.3C15.9167 16.1167 15.6833 16.025 15.4 16.025C15.1167 16.025 14.8833 16.1167 14.7 16.3C14.5167 16.4833 14.425 16.7167 14.425 17C14.425 17.2833 14.5167 17.5167 14.7 17.7L17.3 20.3C17.5 20.5 17.7333 20.6 18 20.6C18.2667 20.6 18.5 20.5 18.7 20.3L21.3 17.7C21.4833 17.5167 21.575 17.2833 21.575 17C21.575 16.7167 21.4833 16.4833 21.3 16.3C21.1167 16.1167 20.8833 16.025 20.6 16.025C20.3167 16.025 20.0833 16.1167 19.9 16.3L19 17.2V14.025C19 13.7417 18.9042 13.5042 18.7125 13.3125C18.5208 13.1208 18.2833 13.025 18 13.025C17.7167 13.025 17.4792 13.1208 17.2875 13.3125C17.0958 13.5042 17 13.7417 17 14.025V17.2ZM15 22H21C21.2833 22 21.5208 22.0958 21.7125 22.2875C21.9042 22.4792 22 22.7167 22 23C22 23.2833 21.9042 23.5208 21.7125 23.7125C21.5208 23.9042 21.2833 24 21 24H15C14.7167 24 14.4792 23.9042 14.2875 23.7125C14.0958 23.5208 14 23.2833 14 23C14 22.7167 14.0958 22.4792 14.2875 22.2875C14.4792 22.0958 14.7167 22 15 22ZM6 22C5.45 22 4.97917 21.8042 4.5875 21.4125C4.19583 21.0208 4 20.55 4 20V4C4 3.45 4.19583 2.97917 4.5875 2.5875C4.97917 2.19583 5.45 2 6 2H13.175C13.4417 2 13.6958 2.05 13.9375 2.15C14.1792 2.25 14.3917 2.39167 14.575 2.575L19.425 7.425C19.6083 7.60833 19.75 7.82083 19.85 8.0625C19.95 8.30417 20 8.55833 20 8.825V10.025C20 10.3083 19.9042 10.5458 19.7125 10.7375C19.5208 10.9292 19.2833 11.025 19 11.025C18.7167 11.025 18.4792 10.9292 18.2875 10.7375C18.0958 10.5458 18 10.3083 18 10.025V9H14.5C14.0833 9 13.7292 8.85417 13.4375 8.5625C13.1458 8.27083 13 7.91667 13 7.5V4H6V20H11C11.2833 20 11.5208 20.0958 11.7125 20.2875C11.9042 20.4792 12 20.7167 12 21C12 21.2833 11.9042 21.5208 11.7125 21.7125C11.5208 21.9042 11.2833 22 11 22H6Z" fill="#111111"/>
<path d="M16.5 13H16V14.5C16 14.6333 15.95 14.75 15.85 14.85C15.75 14.95 15.6333 15 15.5 15C15.3667 15 15.25 14.95 15.15 14.85C15.05 14.75 15 14.6333 15 14.5V10.5C15 10.3667 15.05 10.25 15.15 10.15C15.25 10.05 15.3667 10 15.5 10H16.5C16.6333 10 16.75 10.05 16.85 10.15C16.95 10.25 17 10.3667 17 10.5C17 10.6333 16.95 10.75 16.85 10.85C16.75 10.95 16.6333 11 16.5 11H16V12H16.5C16.6333 12 16.75 12.05 16.85 12.15C16.95 12.25 17 12.3667 17 12.5C17 12.6333 16.95 12.75 16.85 12.85C16.75 12.95 16.6333 13 16.5 13Z" fill="#111111"/>
<path fill-rule="evenodd" clip-rule="evenodd" d="M13 15C13.2833 15 13.5208 14.9042 13.7125 14.7125C13.9042 14.5208 14 14.2833 14 14V11C14 10.7167 13.9042 10.4792 13.7125 10.2875C13.5208 10.0958 13.2833 10 13 10H11.5C11.3667 10 11.25 10.05 11.15 10.15C11.05 10.25 11 10.3667 11 10.5V14.5C11 14.6333 11.05 14.75 11.15 14.85C11.25 14.95 11.3667 15 11.5 15H13ZM12 11V14H13V11H12Z" fill="#111111"/>
<path fill-rule="evenodd" clip-rule="evenodd" d="M8 13H9C9.28333 13 9.52083 12.9042 9.7125 12.7125C9.90417 12.5208 10 12.2833 10 12V11C10 10.7167 9.90417 10.4792 9.7125 10.2875C9.52083 10.0958 9.28333 10 9 10H7.5C7.36667 10 7.25 10.05 7.15 10.15C7.05 10.25 7 10.3667 7 10.5V14.5C7 14.6333 7.05 14.75 7.15 14.85C7.25 14.95 7.36667 15 7.5 15C7.63333 15 7.75 14.95 7.85 14.85C7.95 14.75 8 14.6333 8 14.5V13ZM8 11V12H9V11H8Z" fill="#111111"/>
</g>
</svg>
