<svg width="24" height="25" viewBox="0 0 24 25" fill="none" xmlns="http://www.w3.org/2000/svg">
<mask id="mask0_4001_24625" style="mask-type:alpha" maskUnits="userSpaceOnUse" x="0" y="0" width="24" height="25">
<rect y="0.499939" width="24" height="24" fill="#D9D9D9"/>
</mask>
<g mask="url(#mask0_4001_24625)">
<path d="M9 12.4999C8.71667 12.4999 8.47917 12.4041 8.2875 12.2124C8.09583 12.0208 8 11.7833 8 11.4999C8 11.2166 8.09583 10.9791 8.2875 10.7874C8.47917 10.5958 8.71667 10.4999 9 10.4999H15C15.2833 10.4999 15.5208 10.5958 15.7125 10.7874C15.9042 10.9791 16 11.2166 16 11.4999C16 11.7833 15.9042 12.0208 15.7125 12.2124C15.5208 12.4041 15.2833 12.4999 15 12.4999H9ZM9 8.49994C8.71667 8.49994 8.47917 8.40411 8.2875 8.21244C8.09583 8.02077 8 7.78327 8 7.49994C8 7.21661 8.09583 6.97911 8.2875 6.78744C8.47917 6.59577 8.71667 6.49994 9 6.49994H15C15.2833 6.49994 15.5208 6.59577 15.7125 6.78744C15.9042 6.97911 16 7.21661 16 7.49994C16 7.78327 15.9042 8.02077 15.7125 8.21244C15.5208 8.40411 15.2833 8.49994 15 8.49994H9ZM6 14.4999H13.5C13.9833 14.4999 14.4333 14.6041 14.85 14.8124C15.2667 15.0208 15.6167 15.3166 15.9 15.6999L18 18.4499V4.49994H6V14.4999ZM6 20.4999H17.05L14.325 16.9249C14.225 16.7916 14.1042 16.6874 13.9625 16.6124C13.8208 16.5374 13.6667 16.4999 13.5 16.4999H6V20.4999ZM18 22.4999H6C5.45 22.4999 4.97917 22.3041 4.5875 21.9124C4.19583 21.5208 4 21.0499 4 20.4999V4.49994C4 3.94994 4.19583 3.47911 4.5875 3.08744C4.97917 2.69577 5.45 2.49994 6 2.49994H18C18.55 2.49994 19.0208 2.69577 19.4125 3.08744C19.8042 3.47911 20 3.94994 20 4.49994V20.4999C20 21.0499 19.8042 21.5208 19.4125 21.9124C19.0208 22.3041 18.55 22.4999 18 22.4999Z" fill="#1A1847"/>
</g>
</svg>
