<svg width="14" height="14" viewBox="0 0 14 14" fill="none" xmlns="http://www.w3.org/2000/svg">
<path d="M7.81741 13.9024C7.57791 13.9024 7.37584 13.8201 7.21122 13.6555C7.04659 13.4907 6.96428 13.2887 6.96428 13.0493C6.96428 12.8099 7.04659 12.6078 7.21122 12.4431C7.37584 12.2785 7.57791 12.1962 7.81741 12.1962H12.1963V1.80378H7.81741C7.57791 1.80378 7.37584 1.72147 7.21122 1.55685C7.04659 1.3921 6.96428 1.19003 6.96428 0.950659C6.96428 0.711284 7.04659 0.509221 7.21122 0.344471C7.37584 0.179846 7.57791 0.0975342 7.81741 0.0975342H12.1963C12.6685 0.0975342 13.071 0.263846 13.4036 0.596471C13.7362 0.929096 13.9025 1.33153 13.9025 1.80378V12.1962C13.9025 12.6684 13.7362 13.0708 13.4036 13.4035C13.071 13.7361 12.6685 13.9024 12.1963 13.9024H7.81741ZM6.03166 7.8531H0.950781C0.711406 7.8531 0.509344 7.77078 0.344594 7.60616C0.179969 7.44141 0.0976562 7.23935 0.0976562 6.99997C0.0976562 6.7606 0.179969 6.55853 0.344594 6.39378C0.509344 6.22916 0.711406 6.14685 0.950781 6.14685H6.03166L4.72853 4.84372C4.57003 4.68535 4.49078 4.49116 4.49078 4.26116C4.49078 4.03128 4.57003 3.83241 4.72853 3.66453C4.88691 3.49353 5.08503 3.40566 5.32291 3.40091C5.56091 3.39616 5.76534 3.47928 5.93622 3.65028L8.68928 6.40316C8.85716 6.57416 8.94109 6.7731 8.94109 6.99997C8.94109 7.22685 8.85716 7.42578 8.68928 7.59678L5.93622 10.3497C5.76834 10.5207 5.56703 10.6038 5.33228 10.599C5.09766 10.5943 4.89641 10.5064 4.72853 10.3354C4.57003 10.1675 4.49316 9.96622 4.49791 9.73147C4.50266 9.49685 4.58428 9.30035 4.74278 9.14197L6.03166 7.8531Z" fill="#DFE0FF"/>
</svg>
