<svg width="160" height="80" viewBox="0 0 160 80" fill="none" xmlns="http://www.w3.org/2000/svg">
<g clip-path="url(#clip0_4001_1915)">
<path d="M15.9102 80C24.0012 80 32.4968 73.9191 30.9671 64.8546C28.7421 51.7573 21.7004 44.5891 18.0847 41.9342C16.8205 40.9987 15.0885 41.0114 13.8242 41.9469C10.2465 44.6144 3.3312 51.7825 1.11881 64.8546C-0.423539 73.9191 8.07204 80 16.1757 80H15.9102Z" fill="#EC0054"/>
<path d="M20.8407 3.00879L20.0695 8.33117H8.95696V15.8912H18.6536V21.1251H8.95696V29.1782H20.8407V34.5511H1.49805V3.00879H20.8407Z" fill="#404AA0"/>
<path d="M46.0493 0.771176V34.5386H39.6776L39.3109 31.7193C37.6169 34.1214 35.316 35.3097 32.4336 35.3097C29.5511 35.3097 27.1491 34.1593 25.5815 31.8458C24.0139 29.5449 23.2427 26.3843 23.2427 22.3767C23.2427 19.9241 23.6472 17.7244 24.469 15.7775C25.2907 13.8306 26.4538 12.3135 27.9456 11.2263C29.45 10.1391 31.1694 9.58281 33.1163 9.58281C35.4171 9.58281 37.3261 10.3413 38.8558 11.8584V0L46.0493 0.771176ZM38.8558 27.3072V16.89C38.2743 16.1947 37.6927 15.6764 37.0986 15.3477C36.5044 15.019 35.8343 14.842 35.0758 14.842C33.7357 14.842 32.6738 15.4614 31.89 16.713C31.1061 17.952 30.7016 19.8736 30.7016 22.4526C30.7016 25.2718 31.0429 27.244 31.7256 28.3692C32.4083 29.4943 33.3817 30.0506 34.6586 30.0506C36.3274 30.0506 37.718 29.1403 38.8432 27.3198L38.8558 27.3072Z" fill="#404AA0"/>
<path d="M72.0797 34.5385H65.8471L65.531 31.4917C63.7737 34.0455 61.3338 35.3097 58.1985 35.3097C55.9861 35.3097 54.3047 34.6397 53.1669 33.3122C52.0291 31.9721 51.4602 30.1137 51.4602 27.7117V10.3666H58.6536V26.8015C58.6536 27.9898 58.8433 28.8116 59.2225 29.2793C59.6018 29.7471 60.1833 29.9873 60.9798 29.9873C62.4969 29.9873 63.799 29.0518 64.8989 27.1681V10.3792H72.0923V34.5512L72.0797 34.5385Z" fill="#404AA0"/>
<path d="M92.6992 10.3286C94.0393 10.809 95.2908 11.5549 96.4792 12.5537L93.3819 16.8267C91.8648 15.6763 90.3351 15.0948 88.7801 15.0948C87.2251 15.0948 85.9609 15.6889 85.1391 16.8647C84.3174 18.053 83.9128 19.962 83.9128 22.6042C83.9128 25.2465 84.3174 26.9532 85.1391 28.0151C85.9609 29.0771 87.1366 29.608 88.6916 29.608C89.5133 29.608 90.2592 29.4816 90.9166 29.2161C91.5867 28.9633 92.3831 28.5461 93.3313 27.9645L96.4666 32.4272C94.0645 34.3362 91.3591 35.297 88.325 35.297C85.8724 35.297 83.7485 34.7787 81.9533 33.7294C80.1581 32.6801 78.7801 31.2136 77.8066 29.3173C76.8332 27.4209 76.3528 25.1959 76.3528 22.6548C76.3528 20.1137 76.8332 17.8508 77.8066 15.8786C78.7801 13.9064 80.1581 12.364 81.9533 11.2642C83.7485 10.1643 85.8218 9.60803 88.1859 9.60803C89.8547 9.60803 91.3591 9.84824 92.6865 10.3413L92.6992 10.3286Z" fill="#404AA0"/>
<path d="M118.666 29.5322C118.919 29.962 119.336 30.2781 119.918 30.493L118.413 35.1833C116.922 35.0568 115.708 34.7408 114.772 34.2098C113.837 33.6788 113.104 32.8318 112.585 31.6814C111.005 34.1087 108.578 35.3223 105.303 35.3223C102.901 35.3223 100.992 34.627 99.5638 33.2237C98.1352 31.8204 97.4272 30.0126 97.4272 27.7623C97.4272 25.12 98.4007 23.1099 100.335 21.7066C102.282 20.316 105.088 19.608 108.755 19.608H111.207V18.5587C111.207 17.1302 110.904 16.1567 110.297 15.6257C109.69 15.0948 108.628 14.8293 107.111 14.8293C106.327 14.8293 105.367 14.9431 104.241 15.1706C103.116 15.3982 101.966 15.7142 100.777 16.1061L99.1339 11.3779C100.651 10.7964 102.206 10.3666 103.799 10.0632C105.392 9.75974 106.871 9.60803 108.236 9.60803C111.7 9.60803 114.229 10.316 115.834 11.7446C117.44 13.1731 118.249 15.3097 118.249 18.1668V27.5473C118.249 28.4576 118.375 29.1276 118.641 29.5448L118.666 29.5322ZM111.22 27.8508V23.5777H109.45C107.807 23.5777 106.593 23.8685 105.784 24.4374C104.975 25.0189 104.583 25.9165 104.583 27.1175C104.583 28.091 104.836 28.8369 105.329 29.3678C105.834 29.8988 106.517 30.1643 107.402 30.1643C109.045 30.1643 110.31 29.3931 111.22 27.8381V27.8508Z" fill="#404AA0"/>
<path d="M60.5879 51.378C62.1302 53.641 62.914 56.8015 62.914 60.8723C62.914 63.3629 62.5221 65.5752 61.751 67.5222C60.9798 69.4691 59.8673 70.9861 58.4261 72.0733C56.9848 73.1606 55.2781 73.7168 53.3059 73.7168C52.0038 73.7168 50.8154 73.4387 49.7282 72.8951C48.6536 72.3515 47.7307 71.5929 46.9722 70.6195L46.6056 72.9457H40.2339V39.1783L47.4273 38.4071V51.239C48.1606 50.2402 49.0834 49.4438 50.2212 48.8749C51.359 48.2933 52.598 48.0152 53.9254 48.0152C56.8078 48.0152 59.0202 49.1404 60.5752 51.4033L60.5879 51.378ZM55.4551 60.8597C55.4551 57.9773 55.1264 55.9924 54.4564 54.8926C53.7864 53.8053 52.8129 53.2491 51.5487 53.2491C49.9431 53.2491 48.5778 54.1846 47.4526 56.0683V66.1315C47.9077 66.8648 48.464 67.4337 49.1087 67.8382C49.7661 68.2428 50.4614 68.4577 51.22 68.4577C54.0392 68.4577 55.4551 65.9292 55.4551 60.8597Z" fill="#1A1847"/>
<path d="M107.693 71.7826C106.808 72.3894 105.784 72.8572 104.621 73.1985C103.458 73.5398 102.295 73.7042 101.144 73.7042C95.8596 73.6789 93.23 70.7585 93.23 64.9684V53.7674H89.8167V48.7611H93.23V43.5272L100.423 42.7054V48.7611H105.973L105.202 53.7674H100.423V64.8673C100.423 65.9924 100.6 66.7889 100.967 67.2819C101.334 67.775 101.903 68.0152 102.699 68.0152C103.496 68.0152 104.38 67.7623 105.291 67.244L107.705 71.7952L107.693 71.7826Z" fill="#1A1847"/>
<path d="M130.221 62.9583H115.253C115.493 64.9937 116.075 66.4223 116.985 67.2314C117.895 68.0531 119.147 68.4577 120.765 68.4577C121.738 68.4577 122.674 68.2807 123.584 67.9394C124.494 67.5854 125.481 67.0544 126.542 66.3212L129.501 70.3287C126.682 72.5791 123.534 73.6916 120.082 73.6916C116.163 73.6916 113.167 72.5411 111.068 70.2276C108.97 67.9267 107.933 64.8294 107.933 60.9482C107.933 58.4956 108.376 56.2832 109.248 54.3237C110.133 52.3641 111.422 50.8218 113.116 49.684C114.81 48.5462 116.846 47.9773 119.21 47.9773C122.699 47.9773 125.43 49.0645 127.402 51.2516C129.374 53.4387 130.36 56.4729 130.36 60.354C130.36 61.3528 130.31 62.2251 130.221 62.9457V62.9583ZM123.306 58.3186C123.243 54.6145 121.941 52.7687 119.387 52.7687C118.148 52.7687 117.175 53.2238 116.492 54.1341C115.809 55.0443 115.392 56.5487 115.24 58.6347H123.293V58.3186H123.306Z" fill="#1A1847"/>
<path d="M87.4401 62.9583H72.4717C72.7119 64.9937 73.2934 66.4223 74.2037 67.2314C75.1139 68.0531 76.3655 68.4577 77.9837 68.4577C78.9572 68.4577 79.8927 68.2807 80.8029 67.9394C81.7132 67.5854 82.6993 67.0544 83.7612 66.3212L86.7195 70.3287C83.9003 72.5791 80.7524 73.6916 77.301 73.6916C73.3819 73.6916 70.3857 72.5411 68.2871 70.2276C66.1885 67.9267 65.1519 64.8294 65.1519 60.9482C65.1519 58.4956 65.5943 56.2832 66.4666 54.3237C67.3516 52.3641 68.6411 50.8218 70.3352 49.684C72.0292 48.5462 74.0646 47.9773 76.4287 47.9773C79.918 47.9773 82.6487 49.0645 84.6209 51.2516C86.5931 53.4387 87.5792 56.4729 87.5792 60.354C87.5792 61.3528 87.5286 62.2251 87.4401 62.9457V62.9583ZM80.5248 58.3186C80.4616 54.6145 79.1594 52.7687 76.6057 52.7687C75.3668 52.7687 74.3933 53.2238 73.7106 54.1341C73.028 55.0443 72.6108 56.5487 72.4591 58.6347H80.5122V58.3186H80.5248Z" fill="#1A1847"/>
<path d="M147.794 48.7611C149.311 49.2794 150.639 50 151.802 50.9482L149.159 54.9937C147.187 53.7547 145.202 53.1226 143.192 53.1226C142.257 53.1226 141.536 53.287 141.03 53.603C140.525 53.9191 140.285 54.3742 140.285 54.9431C140.285 55.3982 140.398 55.7649 140.626 56.0556C140.853 56.3464 141.309 56.6372 142.017 56.9406C142.712 57.244 143.786 57.6106 145.253 58.0278C147.769 58.7611 149.64 59.7092 150.879 60.8723C152.105 62.0354 152.724 63.6536 152.724 65.7143C152.724 67.3578 152.257 68.7737 151.309 69.9747C150.373 71.1757 149.084 72.086 147.44 72.7307C145.797 73.3628 143.976 73.6915 141.979 73.6915C139.981 73.6915 138.059 73.3755 136.315 72.7307C134.57 72.0986 133.091 71.2137 131.877 70.0885L135.379 66.1694C137.415 67.7497 139.551 68.5335 141.802 68.5335C142.889 68.5335 143.748 68.3312 144.368 67.9393C144.987 67.5474 145.303 66.9785 145.303 66.2579C145.303 65.6764 145.177 65.2212 144.937 64.8925C144.697 64.5638 144.229 64.2478 143.521 63.957C142.826 63.6662 141.713 63.3123 140.196 62.8824C137.794 62.1871 136.011 61.2137 134.823 59.9747C133.635 58.7358 133.053 57.1808 133.053 55.335C133.053 53.9444 133.458 52.6928 134.254 51.5803C135.051 50.4678 136.214 49.5954 137.718 48.9381C139.223 48.2807 140.955 47.9646 142.927 47.9646C144.659 47.9646 146.277 48.2174 147.794 48.7358V48.7611Z" fill="#1A1847"/>
<path d="M131.865 38.8495C134.246 38.8495 136.176 36.9194 136.176 34.5385C136.176 32.1576 134.246 30.2275 131.865 30.2275C129.484 30.2275 127.554 32.1576 127.554 34.5385C127.554 36.9194 129.484 38.8495 131.865 38.8495Z" fill="#404AA0"/>
<path d="M147.971 35.2719H142.914C142.914 28.4577 137.377 22.9204 130.562 22.9204V17.8635C140.158 17.8635 147.971 25.6764 147.971 35.2719Z" fill="#404AA0"/>
<path d="M159.058 34.2478H154.001C154.001 22.0481 144.077 12.1239 131.877 12.1239V7.06702C146.858 7.06702 159.058 19.2541 159.058 34.2478Z" fill="#404AA0"/>
</g>
<defs>
<clipPath id="clip0_4001_1915">
<rect width="158.116" height="80" fill="white" transform="translate(0.941895)"/>
</clipPath>
</defs>
</svg>
