<svg width="18" height="18" viewBox="0 0 18 18" fill="none" xmlns="http://www.w3.org/2000/svg">
<mask id="mask0_4211_567" style="mask-type:alpha" maskUnits="userSpaceOnUse" x="0" y="0" width="18" height="18">
<rect width="18" height="18" fill="#D9D9D9"/>
</mask>
<g mask="url(#mask0_4211_567)">
<path d="M9.00011 12C9.93761 12 10.7345 11.6719 11.3907 11.0156C12.047 10.3594 12.3751 9.56252 12.3751 8.62502C12.3751 7.68752 12.047 6.89065 11.3907 6.2344C10.7345 5.57815 9.93761 5.25002 9.00011 5.25002C8.06261 5.25002 7.26574 5.57815 6.60949 6.2344C5.95324 6.89065 5.62511 7.68752 5.62511 8.62502C5.62511 9.56252 5.95324 10.3594 6.60949 11.0156C7.26574 11.6719 8.06261 12 9.00011 12ZM9.00086 10.5559C8.46474 10.5559 8.0088 10.3683 7.63305 9.99302C7.25718 9.61765 7.06924 9.1619 7.06924 8.62577C7.06924 8.08965 7.25686 7.63371 7.63211 7.25796C8.00749 6.88208 8.46324 6.69415 8.99936 6.69415C9.53549 6.69415 9.99143 6.88177 10.3672 7.25702C10.7431 7.6324 10.931 8.08815 10.931 8.62427C10.931 9.1604 10.7434 9.61633 10.3681 9.99208C9.99274 10.368 9.53699 10.5559 9.00086 10.5559ZM9.00011 14.389C7.30724 14.389 5.76118 13.936 4.36193 13.03C2.9628 12.1241 1.86024 10.9246 1.05424 9.43165C0.982738 9.30427 0.929863 9.17296 0.895613 9.03771C0.861363 8.90258 0.844238 8.76502 0.844238 8.62502C0.844238 8.48502 0.861363 8.34746 0.895613 8.21233C0.929863 8.07708 0.982738 7.94577 1.05424 7.8184C1.86024 6.3254 2.9628 5.12596 4.36193 4.22008C5.76118 3.31408 7.30724 2.86108 9.00011 2.86108C10.693 2.86108 12.2391 3.31408 13.6383 4.22008C15.0374 5.12596 16.14 6.3254 16.946 7.8184C17.0175 7.94577 17.0704 8.07708 17.1046 8.21233C17.1389 8.34746 17.156 8.48502 17.156 8.62502C17.156 8.76502 17.1389 8.90258 17.1046 9.03771C17.0704 9.17296 17.0175 9.30427 16.946 9.43165C16.14 10.9246 15.0374 12.1241 13.6383 13.03C12.2391 13.936 10.693 14.389 9.00011 14.389ZM9.00049 12.75C10.4097 12.75 11.7035 12.3774 12.8817 11.6321C14.06 10.8869 14.9616 9.88452 15.5866 8.62502C14.9616 7.36552 14.0599 6.36315 12.8814 5.6179C11.7029 4.87265 10.409 4.50002 8.99974 4.50002C7.59049 4.50002 6.29674 4.87265 5.11849 5.6179C3.94024 6.36315 3.03861 7.36552 2.41361 8.62502C3.03861 9.88452 3.94036 10.8869 5.11886 11.6321C6.29736 12.3774 7.59124 12.75 9.00049 12.75Z" fill="#404AA0"/>
</g>
</svg>
